<svg width="119" height="20" viewBox="0 0 119 20" fill="none" xmlns="http://www.w3.org/2000/svg">
<path d="M6.78988 19.6999C5.53593 19.6962 4.298 19.4179 3.16318 18.8844C1.89049 18.2574 0.801007 17.3128 0 16.1418L2.85415 13.8971C3.33487 14.6155 3.97347 15.2145 4.72116 15.6483C5.4347 16.0758 6.24991 16.3041 7.08174 16.3092C7.7895 16.3429 8.48797 16.1372 9.06462 15.7255C9.31065 15.5397 9.50791 15.2969 9.63948 15.0181C9.77105 14.7393 9.833 14.4327 9.82001 14.1246C9.82658 13.8841 9.77592 13.6454 9.6722 13.4283C9.56848 13.2111 9.41467 13.0217 9.22343 12.8757C8.70376 12.4746 8.16368 12.1007 7.60536 11.7554L5.79844 10.6481C4.9851 10.1602 4.28091 9.51007 3.72971 8.7382C3.19079 7.89173 2.92694 6.89927 2.97433 5.89692C2.96597 5.09963 3.14535 4.31156 3.49795 3.59643C3.84346 2.88488 4.32289 2.24661 4.91 1.71655C5.52788 1.16531 6.24432 0.735736 7.02165 0.450419C7.86051 0.139781 8.7496 -0.0130075 9.64404 -0.000237362C10.7514 -0.00509811 11.8426 0.264768 12.8201 0.785192C13.8135 1.30985 14.6954 2.02266 15.4167 2.88396L12.8759 5.24454C12.4173 4.75179 11.8981 4.31914 11.3308 3.95695C10.771 3.61331 10.1249 3.43615 9.46807 3.44621C8.81487 3.4014 8.17032 3.61574 7.67403 4.04279C7.47408 4.22561 7.31492 4.44854 7.20695 4.69702C7.09897 4.94551 7.04461 5.21397 7.0474 5.48489C7.04675 5.72179 7.10482 5.95515 7.21642 6.16412C7.32802 6.37308 7.48967 6.55113 7.6869 6.68235C8.1161 6.99137 8.69981 7.38194 9.43802 7.84547L11.305 9.01288C12.1167 9.46114 12.8109 10.095 13.3308 10.8627C13.7836 11.6755 14.0006 12.5986 13.9575 13.528C13.9645 14.3665 13.7903 15.1967 13.4467 15.9616C13.113 16.7034 12.6259 17.366 12.0175 17.9058C11.3554 18.4832 10.5891 18.929 9.75992 19.2192C8.80532 19.5506 7.80029 19.7133 6.78988 19.6999Z" fill="white"/>
<path d="M18.5369 19.7001L21.7387 3.50653H16.5884L17.2365 0H31.7605L31.0437 3.50653H25.8934L22.6744 19.7001H18.5369Z" fill="white"/>
<path d="M25.833 19.7001L36.2238 0H41.2025L43.1639 19.7001H38.8205L38.5801 14.7429H32.7216L30.3954 19.7001H25.833ZM35.4084 9.03458L34.198 11.6312H38.4299L38.3097 9.03458C38.2668 8.07032 38.2268 7.11321 38.1896 6.16326C38.1466 5.21903 38.108 4.219 38.0651 3.15888H37.9449C37.5243 4.18896 37.1123 5.17611 36.7088 6.12034C36.3054 7.06457 35.8719 8.03598 35.4084 9.03458Z" fill="white"/>
<path d="M90.4103 19.7C89.4029 19.7152 88.4023 19.5314 87.4661 19.1592C86.6105 18.8149 85.8445 18.2807 85.2257 17.5969C84.5757 16.8604 84.0834 15.9986 83.7793 15.0646C83.4219 13.9646 83.2479 12.8133 83.2642 11.6568C83.2496 10.0732 83.5155 8.4995 84.0497 7.00862C84.5276 5.65949 85.2427 4.40658 86.1613 3.30895C87.0103 2.29005 88.059 1.45598 89.2429 0.858238C90.383 0.287178 91.6418 -0.00691536 92.9169 -0.00015462C93.9255 -0.0150729 94.9268 0.173222 95.8611 0.553508C96.7167 0.911683 97.482 1.45557 98.1015 2.14583C98.7489 2.87861 99.2396 3.73594 99.5436 4.66521C99.9012 5.75622 100.074 6.89933 100.054 8.04727C100.069 9.63089 99.8031 11.2046 99.269 12.6955C98.7899 14.0441 98.0749 15.2968 97.1573 16.3951C96.3073 17.4068 95.2603 18.2348 94.08 18.8287C92.9427 19.4046 91.6852 19.7032 90.4103 19.7ZM90.6164 16.2664C91.3236 16.259 92.0125 16.0409 92.595 15.6398C93.2732 15.1844 93.8564 14.6013 94.3117 13.923C94.8427 13.1506 95.2509 12.3008 95.5221 11.4036C95.829 10.3981 95.9809 9.35175 95.9727 8.3005C95.9727 6.78401 95.6952 5.59943 95.1401 4.74676C94.8905 4.33752 94.536 4.00239 94.1135 3.77602C93.6909 3.54965 93.2156 3.44026 92.7366 3.45917C92.0285 3.469 91.3389 3.68692 90.7537 4.08579C90.0806 4.53703 89.4983 5.11065 89.0369 5.77683C88.5016 6.5438 88.0889 7.38942 87.8137 8.28333C87.4947 9.28646 87.3368 10.3338 87.3459 11.3864C87.3459 12.9001 87.632 14.0889 88.2043 14.953C88.4541 15.3652 88.8093 15.7034 89.2333 15.9327C89.6572 16.162 90.1346 16.2742 90.6164 16.2578V16.2664Z" fill="white"/>
<path d="M100.14 19.7001L104.097 0H108.115L111.316 10.2707L112.377 14.5927H112.497C112.557 14.0905 112.608 13.5368 112.647 12.9317C112.686 12.3265 112.737 11.7171 112.797 11.1033C112.857 10.4896 112.93 9.87151 113.007 9.24489C113.085 8.61826 113.192 8.02597 113.312 7.46372L114.823 0H118.75L114.823 19.7001H110.836L107.6 9.44232L106.604 5.06452H106.484C106.381 6.17184 106.265 7.33926 106.136 8.56676C106.007 9.79426 105.831 10.9831 105.608 12.1334L104.097 19.6872L100.14 19.7001Z" fill="white"/>
<path d="M51.392 10.3008L49.5293 14.3438L42.9282 0.00439453H46.6494L51.392 10.3008Z" fill="#E1E1E1"/>
<path d="M81.2853 0L72.2207 19.7001H75.9418L85.0107 0H81.2853Z" fill="#00E013"/>
<path d="M71.5425 3.24902L63.9715 19.7001H60.2461L67.8171 3.24902H71.5425Z" fill="#00E013"/>
<path d="M59.8555 0.00439453L51.5076 18.1422L51.3917 18.3912L50.7909 19.7002H47.0654L49.529 14.3438L51.3917 10.3008L56.1301 0.00439453H59.8555Z" fill="#00E013"/>
<path d="M78.049 0.00439453H61.6709V3.24912H78.049V0.00439453Z" fill="#E1E1E1"/>
</svg>
